<?xml version="1.0" standalone="no"?>
<svg viewBox="0 0 200 200" width='600' heigth='500' xmlns="http://www.w3.org/2000/svg">
  <path fill="#24A148" d="M19.9,-28.1C27.5,-30.1,36.5,-28.2,45.8,-22.8C55,-17.5,64.6,-8.7,67.6,1.7C70.5,12.1,66.8,24.3,55.8,26.7C44.8,29,26.5,21.7,16,29.2C5.5,36.7,2.8,59.2,-6.3,70.1C-15.3,81,-30.7,80.3,-44.5,74.7C-58.4,69.1,-70.9,58.6,-75.9,45.3C-81,32.1,-78.7,16,-71.5,4.1C-64.4,-7.8,-52.5,-15.6,-46.3,-26.9C-40,-38.1,-39.5,-52.9,-32.8,-51.3C-26,-49.8,-13,-32,-3.4,-26C6.2,-20.1,12.4,-26.1,19.9,-28.1Z" transform="translate(100 100)" />
</svg>
