<?xml version="1.0" standalone="no"?>
<svg viewBox="0 0 200 200" width="600px" height="500px" xmlns="http://www.w3.org/2000/svg">
  <path fill="#F2F4F8" d="M27.3,-29C40.7,-27.9,60.5,-27,62.8,-20.3C65.2,-13.6,50,-1.1,38.1,5.1C26.1,11.4,17.2,11.5,11.4,21.1C5.6,30.7,2.8,49.8,-5.4,57.3C-13.6,64.7,-27.3,60.5,-41.1,53.5C-54.9,46.5,-69,36.7,-74.1,23.5C-79.1,10.2,-75.3,-6.5,-64.1,-14.6C-53,-22.8,-34.5,-22.4,-22.6,-24C-10.7,-25.7,-5.3,-29.3,0.8,-30.4C7,-31.6,13.9,-30.2,27.3,-29Z" transform="translate(100 100)" />
</svg>
