<?xml version="1.0" standalone="no"?>
<svg viewBox="0 0 200 200" width="600px" height="500px" xmlns="http://www.w3.org/2000/svg">
  <path fill="#A7F0BA" d="M34.8,-54.7C44.1,-48.1,50.1,-36.8,54.6,-25.4C59.2,-13.9,62.5,-2.2,63.2,10.8C63.9,23.8,62.2,38.1,54.5,47.5C46.8,56.9,33.1,61.4,19.3,65.4C5.5,69.4,-8.5,72.8,-18.9,68.1C-29.4,63.4,-36.4,50.5,-41.8,39.1C-47.3,27.7,-51,17.8,-55.9,6C-60.8,-5.8,-66.8,-19.5,-65.2,-32.5C-63.5,-45.4,-54.2,-57.6,-42,-63C-29.9,-68.3,-15,-66.8,-1.1,-65.1C12.7,-63.4,25.4,-61.4,34.8,-54.7Z" transform="translate(100 100)" />
</svg>
