<?xml version="1.0" standalone="no"?>
<svg viewBox="0 0 200 200" width='600' heigth='500' xmlns="http://www.w3.org/2000/svg">
  <path fill="#8A3FFC" d="M38.2,-47.5C48.9,-44.7,56.7,-32.8,65.7,-18.3C74.7,-3.7,84.9,13.6,77.2,21.4C69.5,29.1,44.1,27.4,28.3,27.2C12.4,27,6.2,28.3,-3.3,32.9C-12.8,37.4,-25.5,45,-30,41.5C-34.4,38,-30.5,23.3,-36.3,10.6C-42.1,-2.2,-57.6,-13,-58.5,-21.8C-59.4,-30.6,-45.8,-37.4,-33.6,-39.7C-21.4,-42.1,-10.7,-40,1.5,-42.1C13.7,-44.1,27.4,-50.4,38.2,-47.5Z" transform="translate(100 100)" />
</svg>
