<?xml version="1.0" standalone="no"?>
<svg viewBox="0 0 200 200" width="600px" height="500px" xmlns="http://www.w3.org/2000/svg">
  <path fill="#BAE6FF" d="M45.6,-73.5C57.5,-63.4,64.3,-47.9,66.4,-33.3C68.4,-18.7,65.7,-4.8,61.8,7.5C57.9,19.9,52.9,30.7,46.1,41.7C39.3,52.8,30.7,64.1,20,66.5C9.2,69,-3.6,62.6,-16.9,58.4C-30.2,54.1,-44,52.1,-57.6,45.1C-71.2,38,-84.7,26.1,-85.6,13C-86.4,-0.2,-74.7,-14.4,-64.8,-26.9C-54.9,-39.3,-46.8,-49.8,-36.4,-60.6C-25.9,-71.4,-12.9,-82.3,2,-85.4C16.9,-88.5,33.8,-83.6,45.6,-73.5Z" transform="translate(100 100)" />
</svg>
