<?xml version="1.0" standalone="no"?>
<svg viewBox="0 0 200 200" width="600px" height="500px" xmlns="http://www.w3.org/2000/svg">
  <path fill="#FFD6E8" d="M40.5,-52.5C51.9,-38.8,60,-25.4,64.7,-9.7C69.5,5.9,70.8,23.8,61.7,31.7C52.5,39.7,32.7,37.7,16.5,42.2C0.3,46.8,-12.4,57.9,-23.5,57.1C-34.5,56.3,-43.9,43.5,-52.2,29.8C-60.5,16.1,-67.9,1.4,-67.4,-13.7C-66.9,-28.9,-58.7,-44.6,-46.2,-58.1C-33.7,-71.6,-16.8,-82.9,-1.1,-81.6C14.6,-80.3,29.2,-66.2,40.5,-52.5Z" transform="translate(100 100)" />
</svg>
