<?xml version="1.0" standalone="no"?>
<svg viewBox="0 0 200 200" width="600px" height="500px" xmlns="http://www.w3.org/2000/svg">
  <path fill="#08BDBA" d="M45.2,-68.2C54.8,-64.2,56.2,-45.2,62.4,-29.2C68.6,-13.2,79.6,-0.1,80.1,13.1C80.7,26.3,70.8,39.6,59.3,49.4C47.7,59.2,34.4,65.5,20.3,70.1C6.2,74.7,-8.7,77.6,-19.9,72.2C-31,66.8,-38.5,53.3,-43.5,41.2C-48.6,29.1,-51.2,18.4,-57.4,5.5C-63.7,-7.5,-73.5,-22.8,-71,-34.3C-68.6,-45.8,-54,-53.5,-40.1,-55.5C-26.2,-57.6,-13.1,-53.9,2.4,-57.6C17.8,-61.2,35.6,-72.2,45.2,-68.2Z" transform="translate(100 100)" />
</svg>
